<svg width="191" height="756" viewBox="0 0 191 756" fill="none" xmlns="http://www.w3.org/2000/svg">
<mask id="path-1-inside-1_322_19259" fill="white">
<path fill-rule="evenodd" clip-rule="evenodd" d="M41.7501 92.8897H150.088V83.3839H41.7501V92.8897ZM171.216 23.8686C170.572 23.9312 169.878 23.9312 169.185 23.9937H22.5792C21.5885 23.9937 20.6225 23.9312 19.706 23.8686V33.7288H171.216V23.8686ZM184.492 11.6321C187.786 8.50516 189.965 4.41935 190.535 0H0.535156C1.37729 4.54442 3.7055 8.75531 7.14833 11.9447C11.0122 15.4886 16.2632 17.7399 22.604 17.7399H168.986C175.228 17.6148 180.652 15.2593 184.492 11.6529V11.6321ZM170.869 40.0034H20.0528C20.895 43.7348 23.2232 47.0911 26.5174 49.6968C30.8024 53.0738 36.7716 55.1376 43.3105 55.1376H147.636C154.175 55.1376 160.119 53.0738 164.404 49.6968C167.699 47.0911 170.027 43.7348 170.869 40.0034ZM130.917 714.058V698.278H118.904V714.058H130.917ZM138.348 698.278V714.058H150.063V698.278H138.348ZM111.449 714.058V698.278H99.4362V714.058H111.449ZM92.0056 714.058V698.278H80.0671V714.058H92.0056ZM72.6366 714.058V698.278H60.6238V714.058H72.6366ZM53.1932 714.058V698.278H41.7501V714.058H53.1932ZM138.372 61.3914V77.1093H150.088V61.3914H138.372ZM130.942 77.1093V61.3914H118.929V77.1093H130.942ZM111.499 77.1093V61.3914H99.4857V77.1093H111.499ZM92.0551 77.1093V61.3914H80.1167V77.1093H92.0551ZM72.6861 77.1093V61.3914H60.6733V77.1093H72.6861ZM53.2428 77.1093V61.3914H41.7997V77.1093H53.2428ZM41.7997 682.497V692.003H150.138V682.497H41.7997ZM175.55 739.928H15.4706V756H175.55V739.928ZM150.138 99.1434H134.409V676.243H150.138V99.1643V99.1434ZM126.979 99.1434H111.251V676.243H126.979V99.1643V99.1434ZM103.87 99.1434H88.1417V676.243H103.87V99.1643V99.1434ZM80.7111 99.1434H64.9831V676.243H80.7111V99.1643V99.1434ZM57.5525 99.1434H41.8244V676.243H57.5525V99.1643V99.1434ZM35.5084 733.653H155.562C157.742 733.653 159.698 732.882 161.184 731.694C162.596 730.443 163.513 728.796 163.513 726.962C163.513 725.127 162.596 723.48 161.184 722.229C159.698 720.979 157.742 720.27 155.562 720.27H35.5084C33.3288 720.27 31.3721 720.979 29.886 722.229C28.4742 723.418 27.5577 725.127 27.5577 726.962C27.5577 728.796 28.4742 730.443 29.886 731.694C31.3473 732.882 33.3288 733.653 35.5084 733.653Z"/>
</mask>
<path fill-rule="evenodd" clip-rule="evenodd" d="M41.7501 92.8897H150.088V83.3839H41.7501V92.8897ZM171.216 23.8686C170.572 23.9312 169.878 23.9312 169.185 23.9937H22.5792C21.5885 23.9937 20.6225 23.9312 19.706 23.8686V33.7288H171.216V23.8686ZM184.492 11.6321C187.786 8.50516 189.965 4.41935 190.535 0H0.535156C1.37729 4.54442 3.7055 8.75531 7.14833 11.9447C11.0122 15.4886 16.2632 17.7399 22.604 17.7399H168.986C175.228 17.6148 180.652 15.2593 184.492 11.6529V11.6321ZM170.869 40.0034H20.0528C20.895 43.7348 23.2232 47.0911 26.5174 49.6968C30.8024 53.0738 36.7716 55.1376 43.3105 55.1376H147.636C154.175 55.1376 160.119 53.0738 164.404 49.6968C167.699 47.0911 170.027 43.7348 170.869 40.0034ZM130.917 714.058V698.278H118.904V714.058H130.917ZM138.348 698.278V714.058H150.063V698.278H138.348ZM111.449 714.058V698.278H99.4362V714.058H111.449ZM92.0056 714.058V698.278H80.0671V714.058H92.0056ZM72.6366 714.058V698.278H60.6238V714.058H72.6366ZM53.1932 714.058V698.278H41.7501V714.058H53.1932ZM138.372 61.3914V77.1093H150.088V61.3914H138.372ZM130.942 77.1093V61.3914H118.929V77.1093H130.942ZM111.499 77.1093V61.3914H99.4857V77.1093H111.499ZM92.0551 77.1093V61.3914H80.1167V77.1093H92.0551ZM72.6861 77.1093V61.3914H60.6733V77.1093H72.6861ZM53.2428 77.1093V61.3914H41.7997V77.1093H53.2428ZM41.7997 682.497V692.003H150.138V682.497H41.7997ZM175.55 739.928H15.4706V756H175.55V739.928ZM150.138 99.1434H134.409V676.243H150.138V99.1643V99.1434ZM126.979 99.1434H111.251V676.243H126.979V99.1643V99.1434ZM103.87 99.1434H88.1417V676.243H103.87V99.1643V99.1434ZM80.7111 99.1434H64.9831V676.243H80.7111V99.1643V99.1434ZM57.5525 99.1434H41.8244V676.243H57.5525V99.1643V99.1434ZM35.5084 733.653H155.562C157.742 733.653 159.698 732.882 161.184 731.694C162.596 730.443 163.513 728.796 163.513 726.962C163.513 725.127 162.596 723.48 161.184 722.229C159.698 720.979 157.742 720.27 155.562 720.27H35.5084C33.3288 720.27 31.3721 720.979 29.886 722.229C28.4742 723.418 27.5577 725.127 27.5577 726.962C27.5577 728.796 28.4742 730.443 29.886 731.694C31.3473 732.882 33.3288 733.653 35.5084 733.653Z" fill="#D7D1CB" stroke="#6B5D50" stroke-width="2" mask="url(#path-1-inside-1_322_19259)"/>
</svg>
